<svg width="249" height="75" viewBox="0 0 249 75" fill="none" xmlns="http://www.w3.org/2000/svg">
<rect x="2" y="2" width="50" height="69" rx="13" stroke="black" stroke-width="4"/>
<path d="M9 25.9597C11.3724 21.6914 12.7457 12.8564 21.6936 15.4771C25.8555 17.9105 25.9103 18.2849 27.7283 22.0287C28.8645 24.3683 34.1792 27.8316 38.5491 24.8366C41.0462 23.5263 44.3543 18.9619 45 15.4771" stroke="black" stroke-width="4" stroke-linecap="round"/>
<path d="M9 59.9597C11.3724 55.6914 12.7457 46.8564 21.6936 49.4771C25.8555 51.9105 25.9103 52.2849 27.7283 56.0287C28.8645 58.3683 34.1792 61.8316 38.5491 58.8366C41.0462 57.5263 44.3543 52.9619 45 49.4771" stroke="black" stroke-width="4" stroke-linecap="round"/>
<path d="M9 42.9597C11.3724 38.6914 12.7457 29.8564 21.6936 32.4771C25.8555 34.9105 25.9103 35.2849 27.7283 39.0287C28.8645 41.3683 34.1792 44.8316 38.5491 41.8366C41.0462 40.5263 44.3543 35.9619 45 32.4771" stroke="black" stroke-width="4" stroke-linecap="round"/>
<path d="M78.688 41.848L84.928 21.4H89.584V55H86.416V27.592H86.368L80.848 45.304H76.288L70.816 27.688V55H67.648V21.4H72.352L78.496 41.848H78.688ZM107.938 37.816C107.938 36.856 107.762 36.104 107.41 35.56C107.09 34.984 106.674 34.552 106.162 34.264C105.682 33.944 105.17 33.736 104.626 33.64C104.114 33.544 103.666 33.496 103.282 33.496C102.898 33.496 102.434 33.544 101.89 33.64C101.346 33.736 100.818 33.944 100.306 34.264C99.826 34.552 99.41 34.984 99.058 35.56C98.706 36.104 98.53 36.856 98.53 37.816V47.944C98.53 48.904 98.706 49.672 99.058 50.248C99.41 50.824 99.826 51.272 100.306 51.592C100.818 51.88 101.346 52.088 101.89 52.216C102.434 52.312 102.898 52.36 103.282 52.36C103.666 52.36 104.114 52.312 104.626 52.216C105.17 52.088 105.682 51.88 106.162 51.592C106.674 51.272 107.09 50.824 107.41 50.248C107.762 49.672 107.938 48.904 107.938 47.944V37.816ZM110.722 48.28C110.722 49.784 110.45 51 109.906 51.928C109.362 52.824 108.69 53.528 107.89 54.04C107.122 54.552 106.306 54.888 105.442 55.048C104.61 55.208 103.89 55.288 103.282 55.288C102.674 55.288 101.938 55.208 101.074 55.048C100.21 54.888 99.378 54.552 98.578 54.04C97.81 53.528 97.154 52.824 96.61 51.928C96.066 51 95.794 49.784 95.794 48.28V37.48C95.794 35.976 96.066 34.776 96.61 33.88C97.154 32.952 97.81 32.248 98.578 31.768C99.378 31.256 100.21 30.92 101.074 30.76C101.938 30.6 102.674 30.52 103.282 30.52C103.89 30.52 104.61 30.6 105.442 30.76C106.306 30.92 107.122 31.256 107.89 31.768C108.69 32.248 109.362 32.952 109.906 33.88C110.45 34.776 110.722 35.976 110.722 37.48V48.28ZM119.266 50.872C119.362 51.096 119.634 51.304 120.082 51.496C120.53 51.688 121.01 51.848 121.522 51.976C122.066 52.104 122.594 52.2 123.106 52.264C123.618 52.328 124.018 52.36 124.306 52.36C125.266 52.36 126.082 52.008 126.754 51.304C127.458 50.568 127.81 49.688 127.81 48.664V37.288C127.81 36.264 127.458 35.4 126.754 34.696C126.082 33.96 125.25 33.592 124.258 33.592C124.002 33.592 123.666 33.624 123.25 33.688C122.834 33.752 122.386 33.848 121.906 33.976C121.458 34.072 120.994 34.216 120.514 34.408C120.034 34.6 119.618 34.808 119.266 35.032V50.872ZM119.218 31.672C120.434 31.032 121.442 30.68 122.242 30.616C123.074 30.552 123.746 30.52 124.258 30.52C125.154 30.52 126.002 30.712 126.802 31.096C127.602 31.448 128.29 31.944 128.866 32.584C129.474 33.192 129.938 33.912 130.258 34.744C130.61 35.576 130.786 36.472 130.786 37.432V48.472C130.786 49.432 130.61 50.344 130.258 51.208C129.938 52.04 129.474 52.776 128.866 53.416C128.29 54.024 127.602 54.504 126.802 54.856C126.002 55.208 125.154 55.384 124.258 55.384C123.586 55.384 122.738 55.288 121.714 55.096C120.69 54.936 119.65 54.584 118.594 54.04C118.37 54.2 118.13 54.408 117.874 54.664C117.65 54.92 117.458 55.128 117.298 55.288L115.186 53.176L116.194 52.12V21.64H119.218V31.672ZM136.256 21.64H139.424V25.96H136.256V21.64ZM136.256 31H139.424V55H136.256V31ZM145.591 21.64H148.663V48.76C148.663 49.912 148.951 50.712 149.527 51.16C150.103 51.576 150.791 51.784 151.591 51.784H152.551V54.952H151.351C149.719 54.952 148.343 54.456 147.223 53.464C146.135 52.44 145.591 50.792 145.591 48.52V21.64ZM163.724 43.096C164.716 43.096 165.548 42.712 166.22 41.944C166.924 41.144 167.276 40.232 167.276 39.208V37.24C167.276 36.568 167.148 36.008 166.892 35.56C166.636 35.08 166.284 34.696 165.836 34.408C165.42 34.12 164.924 33.912 164.348 33.784C163.772 33.656 163.18 33.592 162.572 33.592C161.484 33.592 160.524 33.928 159.692 34.6C158.86 35.24 158.444 36.12 158.444 37.24V43.048L163.724 43.096ZM155.324 37.48C155.324 36.52 155.5 35.624 155.852 34.792C156.204 33.928 156.684 33.192 157.292 32.584C157.9 31.944 158.604 31.448 159.404 31.096C160.236 30.712 161.116 30.52 162.044 30.52H163.628C164.556 30.52 165.42 30.696 166.22 31.048C167.052 31.4 167.772 31.896 168.38 32.536C168.988 33.144 169.468 33.88 169.82 34.744C170.172 35.576 170.348 36.488 170.348 37.48V39.016C170.348 40.392 170.108 41.544 169.628 42.472C169.148 43.4 168.476 44.152 167.612 44.728C166.78 45.304 165.804 45.72 164.684 45.976C163.564 46.232 162.38 46.36 161.132 46.36C160.236 46.36 159.34 46.312 158.444 46.216V48.616C158.668 49.736 159.212 50.648 160.076 51.352C160.972 52.056 161.98 52.408 163.1 52.408C163.164 52.408 163.532 52.344 164.204 52.216C164.908 52.056 165.66 51.88 166.46 51.688C167.388 51.496 168.412 51.256 169.532 50.968L170.3 54.136C169.084 54.392 167.964 54.616 166.94 54.808C166.076 54.968 165.26 55.112 164.492 55.24C163.724 55.368 163.26 55.432 163.1 55.432C162.044 55.432 161.036 55.24 160.076 54.856C159.148 54.472 158.332 53.944 157.628 53.272C156.924 52.6 156.364 51.8 155.948 50.872C155.532 49.944 155.324 48.92 155.324 47.8V37.48ZM189.99 21.4V24.76H179.382V36.472H187.686V39.784H179.382V55H176.07V21.4H189.99ZM194.388 21.64H197.46V48.76C197.46 49.912 197.748 50.712 198.324 51.16C198.9 51.576 199.588 51.784 200.388 51.784H201.348V54.952H200.148C198.516 54.952 197.14 54.456 196.02 53.464C194.932 52.44 194.388 50.792 194.388 48.52V21.64ZM216.313 37.816C216.313 36.856 216.137 36.104 215.785 35.56C215.465 34.984 215.049 34.552 214.537 34.264C214.057 33.944 213.545 33.736 213.001 33.64C212.489 33.544 212.041 33.496 211.657 33.496C211.273 33.496 210.809 33.544 210.265 33.64C209.721 33.736 209.193 33.944 208.681 34.264C208.201 34.552 207.785 34.984 207.433 35.56C207.081 36.104 206.905 36.856 206.905 37.816V47.944C206.905 48.904 207.081 49.672 207.433 50.248C207.785 50.824 208.201 51.272 208.681 51.592C209.193 51.88 209.721 52.088 210.265 52.216C210.809 52.312 211.273 52.36 211.657 52.36C212.041 52.36 212.489 52.312 213.001 52.216C213.545 52.088 214.057 51.88 214.537 51.592C215.049 51.272 215.465 50.824 215.785 50.248C216.137 49.672 216.313 48.904 216.313 47.944V37.816ZM219.097 48.28C219.097 49.784 218.825 51 218.281 51.928C217.737 52.824 217.065 53.528 216.265 54.04C215.497 54.552 214.681 54.888 213.817 55.048C212.985 55.208 212.265 55.288 211.657 55.288C211.049 55.288 210.313 55.208 209.449 55.048C208.585 54.888 207.753 54.552 206.953 54.04C206.185 53.528 205.529 52.824 204.985 51.928C204.441 51 204.169 49.784 204.169 48.28V37.48C204.169 35.976 204.441 34.776 204.985 33.88C205.529 32.952 206.185 32.248 206.953 31.768C207.753 31.256 208.585 30.92 209.449 30.76C210.313 30.6 211.049 30.52 211.657 30.52C212.265 30.52 212.985 30.6 213.817 30.76C214.681 30.92 215.497 31.256 216.265 31.768C217.065 32.248 217.737 32.952 218.281 33.88C218.825 34.776 219.097 35.976 219.097 37.48V48.28ZM236.617 31.048L239.833 51.4L242.761 31H245.785L241.945 55H237.913L234.265 34.792C233.657 38.12 233.065 41.496 232.489 44.92C231.913 48.344 231.305 51.704 230.665 55H226.729L222.889 31H225.865L228.601 51.4L232.009 31.048H236.617Z" fill="black"/>
</svg>
